<svg width="20" height="20" viewBox="0 0 20 20" fill="none" xmlns="http://www.w3.org/2000/svg">
<path d="M14.8282 15.9943L13.3288 9.16383L16.2443 6.24837C17.4938 4.99889 17.9102 3.33292 17.4938 2.49993C16.6608 2.08344 14.9948 2.49993 13.7453 3.74941L10.8299 6.66487L3.99938 5.16549C3.58288 5.08219 3.24969 5.24879 3.08309 5.58198L2.83319 5.99848C2.6666 6.41497 2.7499 6.83146 3.08309 7.08136L7.49792 9.99681L5.83195 12.4958H3.33299L2.5 13.3288L4.99896 14.9947L6.66493 17.4937L7.49792 16.6607V14.1617L9.99688 12.4958L12.9123 16.9106C13.1622 17.2438 13.5787 17.3271 13.9952 17.1605L14.4117 16.9939C14.7449 16.744 14.9115 16.4108 14.8282 15.9943Z" stroke="white" stroke-width="1.66597" stroke-linecap="round" stroke-linejoin="round"/>
</svg>
