<svg width="148" height="30" viewBox="0 0 148 30" fill="none" xmlns="http://www.w3.org/2000/svg">
<path d="M0.244084 5.98605V6.09305V6.20004C0.865995 6.20004 1.37589 6.24685 1.77378 6.34131C2.17167 6.43576 2.45672 6.57703 2.63058 6.76595C2.80362 6.95486 2.93402 7.23154 3.02095 7.596C3.10788 7.96045 3.15135 8.41267 3.15135 8.9535V16.755V24.5564C3.15135 25.7902 2.88888 26.851 2.3631 27.7379C1.83815 28.6248 1.04989 29.3395 0 29.8795L0.0309286 29.9405L0.0618572 30.0015C0.95878 29.7365 1.77629 29.4114 2.51272 29.026C3.24999 28.6407 3.90617 28.196 4.48211 27.6911C5.05804 27.1862 5.4902 26.6211 5.77859 25.9967C6.06698 25.3723 6.21075 24.6877 6.21075 23.9429V16.4474V8.95183C6.21075 8.411 6.25422 7.95878 6.34032 7.59432C6.42725 7.22987 6.55682 6.95319 6.73068 6.76427C6.90372 6.57536 7.18959 6.43409 7.58748 6.33963C7.98537 6.24518 8.49527 6.19837 9.11718 6.19837V6.09137V5.98438H4.68105H0.244084V5.98605Z" fill="url(#paint0_linear_18206_1742)"/>
<path d="M27.0736 18.8369C26.9816 19.2139 26.8888 19.5583 26.7944 19.8693C26.6999 20.1802 26.6046 20.4586 26.5077 20.7027C26.4107 20.9476 26.2912 21.2 26.1482 21.46C26.0053 21.72 25.8398 21.9874 25.6509 22.2633C25.4619 22.5383 25.2555 22.7849 25.0314 23.0014C24.8074 23.2179 24.565 23.4051 24.305 23.5631C24.0451 23.7211 23.745 23.8657 23.4065 23.9953C23.0671 24.1257 22.6884 24.241 22.2705 24.343C21.8525 24.445 21.3986 24.5219 20.9088 24.5729C20.4189 24.6239 19.894 24.649 19.3331 24.649H18.0483H16.7627V20.1209V15.5928H17.0686H17.3746C18.3844 15.5928 19.247 15.663 19.9634 15.8034C20.6797 15.9439 21.2498 16.1537 21.6728 16.4345C22.0958 16.7154 22.4435 17.1166 22.7168 17.6391C22.9893 18.1615 23.1874 18.8052 23.3095 19.57H23.4014H23.4934V15.4549V11.3414H23.4014H23.3095C23.1874 12.1163 22.9893 12.7683 22.7168 13.2957C22.4443 13.8232 22.0958 14.2278 21.6728 14.5078C21.2498 14.7887 20.6797 14.9985 19.9634 15.1389C19.247 15.2793 18.3844 15.3495 17.3746 15.3495H17.0686H16.7627V10.7905V6.23153H17.8795H18.9962C19.6691 6.23153 20.2885 6.25995 20.8553 6.31595C21.4212 6.37196 21.9336 6.45639 22.3925 6.5684C22.8514 6.68041 23.2669 6.82585 23.6388 7.00474C24.0108 7.18278 24.3402 7.3951 24.6252 7.63919C24.9102 7.88411 25.1627 8.14407 25.3825 8.41909C25.6015 8.6941 25.7879 8.98499 25.9409 9.29093C26.0939 9.59687 26.2343 9.94628 26.3614 10.3392C26.4884 10.732 26.6038 11.1675 26.7058 11.6473L26.7827 11.6323L26.8596 11.6172L26.6757 8.80276L26.4918 5.98828H18.6443H10.7969V6.09527V6.20227C11.4188 6.20227 11.9287 6.24908 12.3266 6.34354C12.7245 6.438 13.0095 6.57927 13.1834 6.76818C13.3564 6.95709 13.4868 7.23378 13.5737 7.59823C13.6607 7.96268 13.7041 8.4149 13.7041 8.95573V15.4415V21.9273C13.7041 22.4681 13.6607 22.9203 13.5737 23.2848C13.4868 23.6492 13.3572 23.9259 13.1834 24.1148C13.0095 24.3037 12.7245 24.445 12.3266 24.5394C11.9287 24.6339 11.4188 24.6807 10.7969 24.6807V24.7877V24.8947H18.7363H26.6757L26.9666 21.8813L27.2575 18.8679L27.1655 18.8528L27.0736 18.8369Z" fill="url(#paint1_linear_18206_1742)"/>
<path d="M46.6144 10.535C46.6905 10.744 46.7548 10.9304 46.8058 11.0934C46.8568 11.2564 46.9153 11.4554 46.9813 11.6902C47.0474 11.9251 47.1218 12.1951 47.2037 12.5011L47.2956 12.486L47.3876 12.471L47.1126 9.22767L46.8376 5.98438H38.5922H30.3469L30.0719 9.22767L29.7969 12.471L29.8888 12.486L29.9808 12.5011C30.0619 12.1951 30.1363 11.9251 30.2023 11.6902C30.2683 11.4554 30.3268 11.2572 30.3787 11.0934C30.4297 10.9304 30.4932 10.744 30.5701 10.535C30.647 10.326 30.7356 10.0937 30.8376 9.83872C30.9396 9.58377 31.0415 9.35557 31.1435 9.15411C31.2455 8.95266 31.3475 8.77796 31.4495 8.63001C31.5514 8.48205 31.671 8.32824 31.8089 8.16775C31.9468 8.00726 32.1023 7.84008 32.2753 7.66621C32.4484 7.49318 32.6297 7.34021 32.8178 7.2073C33.0067 7.07439 33.2032 6.96238 33.4071 6.87043C33.6111 6.77848 33.8376 6.69489 34.0876 6.61799C34.3375 6.54109 34.61 6.47254 34.9059 6.41152C35.2018 6.3505 35.5128 6.30453 35.8388 6.2736C36.1648 6.24267 36.5067 6.22762 36.8636 6.22762H36.9555H37.0475V14.045V21.8623C37.0475 22.4132 36.999 22.8746 36.902 23.2466C36.8051 23.6186 36.6596 23.9019 36.4665 24.0959C36.2726 24.2898 35.9692 24.4352 35.5562 24.5322C35.1433 24.6292 34.6209 24.6777 33.9881 24.6777V24.7846V24.8916H38.5922H43.1964V24.7846V24.6777C42.5636 24.6777 42.0412 24.6292 41.6282 24.5322C41.2153 24.4352 40.9119 24.2898 40.7179 24.0959C40.524 23.9019 40.3786 23.6194 40.2816 23.2466C40.1846 22.8738 40.1361 22.4124 40.1361 21.8623V14.045V6.22762H40.2281H40.32C40.677 6.22762 41.0189 6.24267 41.3449 6.2736C41.6709 6.30453 41.9827 6.3505 42.2786 6.41152C42.5745 6.47254 42.847 6.54192 43.0969 6.61799C43.3468 6.69406 43.5734 6.77848 43.7782 6.87043C43.9821 6.96238 44.1786 7.07439 44.3666 7.2073C44.5547 7.34021 44.7361 7.49318 44.91 7.66621C45.083 7.84008 45.2385 8.00726 45.3764 8.16775C45.5143 8.32824 45.6339 8.48289 45.7359 8.63001C45.8378 8.77796 45.9398 8.95266 46.0418 9.15411C46.1438 9.35557 46.2458 9.58377 46.3477 9.83872C46.4489 10.0945 46.5375 10.326 46.6144 10.535Z" fill="url(#paint2_linear_18206_1742)"/>
<path d="M96.7807 24.5013C96.6528 24.4043 96.5566 24.2614 96.4923 24.0733C96.4279 23.8852 96.3961 23.6511 96.3961 23.372V20.8459V18.3198C96.3961 17.8157 96.336 17.3735 96.2156 16.9957C96.0952 16.617 95.9147 16.3019 95.6739 16.0495C95.4332 15.797 95.1573 15.6081 94.8472 15.4819C94.5371 15.3557 94.191 15.293 93.8115 15.293C93.2214 15.293 92.6162 15.4618 91.9951 15.7995C91.374 16.1372 90.7379 16.6438 90.0859 17.3192C90.0157 16.9781 89.907 16.6797 89.7599 16.4256C89.6128 16.1715 89.4264 15.9609 89.2015 15.7937C88.9767 15.6265 88.7301 15.5019 88.4618 15.4184C88.1943 15.3348 87.905 15.293 87.5949 15.293C87.0207 15.293 86.4305 15.456 85.8253 15.782C85.2201 16.108 84.599 16.597 83.9629 17.249V16.2827V15.3164L82.0537 15.5496L80.1445 15.7828V15.853V15.9232C80.4705 15.9232 80.7472 15.9475 80.9737 15.996C81.2011 16.0444 81.3783 16.1172 81.5062 16.2141C81.6341 16.3111 81.7302 16.454 81.7946 16.6421C81.859 16.8302 81.8907 17.0642 81.8907 17.3434V20.3585V23.3736C81.8907 23.6528 81.859 23.8869 81.7946 24.075C81.7302 24.263 81.6341 24.406 81.5062 24.5029C81.3783 24.5999 81.2003 24.6726 80.9737 24.7211C80.7464 24.7696 80.4705 24.7938 80.1445 24.7938V24.8749V24.956H82.9038H85.6632V24.8749V24.7938C85.353 24.7938 85.0889 24.7696 84.8716 24.7211C84.6542 24.6726 84.4837 24.5999 84.3591 24.5029C84.2346 24.406 84.1418 24.263 84.08 24.075C84.0181 23.8869 83.9872 23.6528 83.9872 23.3736V20.4162V17.4588C84.406 17.0241 84.8214 16.6981 85.2327 16.4808C85.6439 16.2634 86.0518 16.1548 86.4548 16.1548C86.9981 16.1548 87.4052 16.3253 87.6768 16.6672C87.9485 17.0091 88.0848 17.5206 88.0848 18.2036V20.7882V23.3728C88.0848 23.652 88.0538 23.886 87.9911 24.0741C87.9285 24.2622 87.8357 24.4051 87.712 24.5021C87.5874 24.5991 87.4169 24.6718 87.1995 24.7203C86.9822 24.7688 86.7181 24.793 86.4079 24.793V24.8741V24.9552H89.1555H91.9032V24.8741V24.793C91.5847 24.793 91.3147 24.7688 91.094 24.7203C90.8725 24.6718 90.7003 24.5991 90.5757 24.5021C90.4512 24.4051 90.3584 24.2622 90.2966 24.0741C90.2347 23.886 90.2038 23.652 90.2038 23.3728V20.8467V18.3206C90.2038 18.2897 90.1979 18.2078 90.1862 18.0765C90.1745 17.9444 90.157 17.7622 90.1336 17.529C90.5758 17.0709 91.0088 16.7274 91.4317 16.4983C91.8547 16.2693 92.2676 16.1548 92.6714 16.1548C93.2147 16.1548 93.6218 16.3253 93.8934 16.6672C94.1651 17.0091 94.3014 17.5206 94.3014 18.2036V20.7882V23.3728C94.3014 23.652 94.2704 23.886 94.2077 24.0741C94.1451 24.2622 94.0523 24.4051 93.9286 24.5021C93.804 24.5991 93.6335 24.6718 93.4161 24.7203C93.1988 24.7688 92.9347 24.793 92.6245 24.793V24.8741V24.9552H95.3839H98.1432V24.8741V24.793C97.8172 24.793 97.5405 24.7688 97.314 24.7203C97.0866 24.6709 96.9085 24.5982 96.7807 24.5013Z" fill="url(#paint3_linear_18206_1742)"/>
<path d="M105.037 19.6441H108.483C108.476 18.9537 108.366 18.3401 108.154 17.8043C107.943 17.2685 107.629 16.8104 107.214 16.4301C106.798 16.0497 106.334 15.7647 105.819 15.5741C105.305 15.3835 104.741 15.2891 104.128 15.2891C103.453 15.2891 102.831 15.4027 102.263 15.6293C101.694 15.8566 101.179 16.1969 100.717 16.6507C100.255 17.1046 99.9088 17.6262 99.6781 18.2139C99.4474 18.8015 99.332 19.4569 99.332 20.1783C99.332 20.8771 99.4373 21.5232 99.6488 22.1167C99.8603 22.7102 100.178 23.2519 100.601 23.7409C101.024 24.2299 101.527 24.5968 102.111 24.8409C102.696 25.085 103.36 25.2079 104.105 25.2079C105.091 25.2079 105.948 24.9788 106.678 24.5208C107.408 24.0627 108.01 23.3756 108.483 22.4603L108.401 22.4252L108.319 22.3901C108.163 22.7085 107.971 23.0053 107.742 23.2811C107.513 23.557 107.247 23.8111 106.945 24.0435C106.642 24.2767 106.314 24.4506 105.961 24.5676C105.607 24.6846 105.229 24.7423 104.826 24.7423C104.282 24.7423 103.805 24.6286 103.394 24.4021C102.982 24.1747 102.637 23.8345 102.358 23.3806C102.079 22.9267 101.875 22.3884 101.747 21.7648C101.619 21.1421 101.566 20.4349 101.59 19.6433H105.037V19.6441ZM101.864 17.8946C101.992 17.4189 102.165 16.9893 102.382 16.6048C102.6 16.2203 102.851 15.9327 103.139 15.7405C103.426 15.5482 103.748 15.4521 104.105 15.4521C104.788 15.4521 105.306 15.7856 105.659 16.4535C106.013 17.1214 106.201 18.1219 106.224 19.4569H103.919H101.613C101.652 18.891 101.736 18.3702 101.864 17.8946Z" fill="url(#paint4_linear_18206_1742)"/>
<path d="M117.888 15.6883C117.763 15.5487 117.614 15.4442 117.44 15.374C117.265 15.3038 117.065 15.2695 116.84 15.2695C116.53 15.2695 116.227 15.3406 115.933 15.4819C115.638 15.6231 115.351 15.8363 115.071 16.1196C114.792 16.403 114.543 16.7165 114.326 17.06C114.109 17.4036 113.922 17.7772 113.768 18.1801V16.7482V15.3163L111.847 15.5496L109.926 15.7828V15.853V15.9232C110.252 15.9232 110.528 15.9483 110.755 15.9993C110.982 16.0494 111.16 16.1255 111.287 16.2258C111.415 16.3269 111.511 16.4724 111.576 16.6621C111.64 16.8519 111.672 17.0868 111.672 17.3668V20.3593V23.351C111.672 23.6302 111.64 23.8651 111.576 24.0557C111.511 24.2463 111.416 24.3917 111.287 24.492C111.16 24.5932 110.982 24.6684 110.755 24.7194C110.528 24.7696 110.252 24.7946 109.926 24.7946V24.8757V24.9568H112.766H115.607V24.8757V24.7946C115.273 24.7946 114.988 24.7704 114.754 24.7219C114.519 24.6734 114.334 24.6007 114.198 24.5037C114.062 24.4068 113.961 24.2622 113.892 24.0699C113.824 23.8776 113.79 23.6377 113.79 23.351V20.8826V18.4142C113.883 18.1969 113.994 17.9887 114.122 17.7889C114.25 17.5892 114.395 17.3977 114.558 17.2155C114.721 17.0333 114.894 16.8812 115.077 16.7591C115.259 16.6371 115.451 16.5443 115.653 16.4824C115.622 16.6847 115.632 16.8745 115.683 17.0533C115.733 17.2322 115.824 17.3986 115.956 17.5541C116.088 17.7095 116.237 17.8257 116.404 17.9035C116.571 17.9812 116.755 18.0196 116.957 18.0196C117.135 18.0196 117.302 17.9871 117.455 17.921C117.608 17.855 117.749 17.7563 117.877 17.6243C118.005 17.4922 118.101 17.3467 118.165 17.1879C118.23 17.0291 118.261 16.8561 118.261 16.6697C118.261 16.4833 118.23 16.3086 118.168 16.1456C118.104 15.9792 118.011 15.8279 117.888 15.6883Z" fill="url(#paint5_linear_18206_1742)"/>
<path d="M123.398 24.5021C123.27 24.4051 123.174 24.2622 123.11 24.0741C123.045 23.886 123.014 23.652 123.014 23.3728V19.3446V15.3163L119.125 15.2695V15.8513V15.9215C119.451 15.9215 119.728 15.9458 119.954 15.9943C120.182 16.0427 120.359 16.1155 120.487 16.2124C120.615 16.3094 120.711 16.4523 120.775 16.6404C120.839 16.8285 120.871 17.0625 120.871 17.3417V20.3568V23.3719C120.871 23.6511 120.839 23.8852 120.775 24.0733C120.711 24.2613 120.615 24.4043 120.487 24.5012C120.359 24.5982 120.181 24.6709 119.954 24.7194C119.727 24.7679 119.451 24.7921 119.125 24.7921V24.8732V24.9543H121.943H124.761V24.8732V24.7921C124.435 24.7921 124.158 24.7679 123.931 24.7194C123.704 24.6718 123.527 24.599 123.398 24.5021Z" fill="url(#paint6_linear_18206_1742)"/>
<path d="M134.775 22.3714C134.604 22.7283 134.405 23.0518 134.178 23.341C133.951 23.6303 133.696 23.8852 133.412 24.1067C133.129 24.3282 132.823 24.4937 132.495 24.6041C132.168 24.7144 131.817 24.7696 131.445 24.7696C130.94 24.7696 130.492 24.6684 130.103 24.467C129.713 24.2655 129.38 23.9621 129.105 23.5592C128.829 23.1555 128.623 22.6765 128.485 22.1215C128.347 21.5664 128.278 20.9361 128.278 20.229C128.278 19.546 128.342 18.9199 128.47 18.3515C128.598 17.7831 128.791 17.2715 129.047 16.8177C129.303 16.3638 129.614 16.0227 129.978 15.7962C130.343 15.5697 130.762 15.456 131.236 15.456C131.725 15.456 132.142 15.5822 132.487 15.8346C132.832 16.0871 133.105 16.4649 133.308 16.9698C133.145 16.9857 132.996 17.0283 132.862 17.0977C132.728 17.1679 132.609 17.2649 132.504 17.3886C132.4 17.5131 132.321 17.6485 132.269 17.7965C132.216 17.9436 132.19 18.1033 132.19 18.2738C132.19 18.4527 132.22 18.6174 132.28 18.7687C132.341 18.9199 132.431 19.0579 132.551 19.1816C132.672 19.3061 132.809 19.3989 132.962 19.4608C133.115 19.5226 133.285 19.5536 133.471 19.5536C133.657 19.5536 133.827 19.5185 133.98 19.4491C134.133 19.3789 134.27 19.2744 134.39 19.1348C134.511 18.9952 134.601 18.8397 134.661 18.6692C134.721 18.4986 134.751 18.3122 134.751 18.11C134.751 17.7455 134.662 17.4003 134.484 17.0743C134.305 16.7483 134.038 16.4415 133.681 16.1548C133.324 15.8681 132.922 15.6524 132.475 15.5086C132.029 15.3649 131.538 15.293 131.002 15.293C130.319 15.293 129.685 15.4092 129.099 15.6424C128.513 15.8756 127.976 16.2242 127.487 16.6898C126.998 17.1554 126.631 17.6945 126.386 18.3081C126.142 18.9216 126.02 19.6079 126.02 20.3686C126.02 21.0599 126.124 21.6935 126.334 22.2694C126.544 22.8453 126.858 23.3644 127.277 23.8267C127.696 24.2889 128.187 24.635 128.75 24.8657C129.312 25.0964 129.947 25.2118 130.653 25.2118C131.646 25.2118 132.498 24.9827 133.208 24.5247C133.919 24.0666 134.487 23.3795 134.914 22.4642L134.843 22.4174L134.775 22.3714Z" fill="url(#paint7_linear_18206_1742)"/>
<path d="M147.496 23.2878L147.415 23.2527C147.345 23.4157 147.257 23.577 147.15 23.7359C147.043 23.8947 146.919 24.0518 146.775 24.2073C146.631 24.3628 146.479 24.479 146.318 24.5567C146.156 24.6345 145.987 24.6729 145.808 24.6729C145.584 24.6729 145.415 24.601 145.302 24.4572C145.189 24.3135 145.133 24.0986 145.133 23.8111V21.2148V18.6185C145.133 18.0592 145.031 17.5719 144.827 17.1548C144.623 16.7377 144.318 16.3916 143.91 16.1158C143.502 15.8408 143.053 15.6335 142.563 15.4955C142.072 15.3576 141.54 15.2891 140.965 15.2891C140.399 15.2891 139.88 15.3492 139.41 15.4696C138.941 15.59 138.52 15.7705 138.147 16.0113C137.775 16.252 137.495 16.5162 137.309 16.8029C137.123 17.0896 137.03 17.4006 137.03 17.7341C137.03 17.9205 137.059 18.0952 137.117 18.2582C137.174 18.4212 137.262 18.5725 137.378 18.7121C137.495 18.8517 137.628 18.9562 137.78 19.0264C137.931 19.0966 138.1 19.1309 138.286 19.1309C138.465 19.1309 138.629 19.0999 138.778 19.0381C138.926 18.9762 139.062 18.8826 139.182 18.7589C139.303 18.6352 139.393 18.4989 139.453 18.3518C139.513 18.2047 139.543 18.045 139.543 17.8745C139.543 17.7349 139.523 17.602 139.482 17.4758C139.441 17.3496 139.38 17.23 139.299 17.118C139.218 17.0052 139.124 16.9115 139.017 16.8355C138.91 16.7594 138.791 16.7026 138.659 16.6633C138.9 16.2595 139.206 15.9569 139.579 15.7555C139.951 15.554 140.389 15.4529 140.894 15.4529C141.275 15.4529 141.6 15.5089 141.869 15.6217C142.139 15.7346 142.353 15.9034 142.513 16.1283C142.671 16.3532 142.791 16.6273 142.87 16.9492C142.95 17.271 142.99 17.6421 142.99 18.0609V19.2128V20.3655C142.555 20.2259 142.119 20.1214 141.68 20.0512C141.241 19.981 140.801 19.9467 140.358 19.9467C139.815 19.9467 139.319 20.0027 138.871 20.1156C138.423 20.2284 138.022 20.3973 137.669 20.6221C137.316 20.847 137.052 21.1245 136.874 21.4547C136.698 21.7849 136.609 22.1669 136.609 22.6015C136.609 22.9978 136.681 23.3538 136.825 23.6698C136.969 23.9858 137.184 24.2625 137.471 24.499C137.758 24.7356 138.094 24.9136 138.478 25.0315C138.863 25.1502 139.295 25.2087 139.777 25.2087C140.452 25.2087 141.063 25.0733 141.611 24.8016C142.158 24.53 142.641 24.1229 143.06 23.5795C143.098 23.8278 143.172 24.0493 143.281 24.2432C143.389 24.4372 143.533 24.6044 143.712 24.744C143.891 24.8835 144.091 24.9889 144.311 25.0583C144.533 25.1285 144.775 25.1627 145.039 25.1627C145.567 25.1627 146.043 25.0098 146.465 24.703C146.888 24.3962 147.259 23.9365 147.577 23.3229L147.496 23.2878ZM142.991 21.9487V23.3455C142.634 23.8186 142.259 24.1739 141.867 24.4104C141.475 24.647 141.066 24.7657 140.639 24.7657C140.36 24.7657 140.109 24.7164 139.889 24.6169C139.668 24.5174 139.476 24.3695 139.313 24.1714C139.15 23.9732 139.028 23.7375 138.946 23.4642C138.864 23.1908 138.824 22.8791 138.824 22.5296C138.824 21.7615 139.013 21.1847 139.394 20.801C139.774 20.4165 140.344 20.2251 141.106 20.2251C141.361 20.2251 141.647 20.2526 141.962 20.307C142.276 20.3613 142.62 20.4432 142.992 20.5511V21.9487H142.991Z" fill="url(#paint8_linear_18206_1742)"/>
<path d="M48.7151 19.5195C47.9561 19.5195 47.3216 19.7761 46.8117 20.2886C46.3018 20.801 46.0469 21.4505 46.0469 22.237C46.0469 23.0236 46.3018 23.6731 46.8117 24.1855C47.3216 24.6979 47.9561 24.9546 48.7151 24.9546C49.4682 24.9546 50.1018 24.6979 50.6142 24.1855C51.1267 23.6731 51.3833 23.0236 51.3833 22.237C51.3833 21.4505 51.1283 20.801 50.6184 20.2886C50.1085 19.7761 49.4749 19.5195 48.7151 19.5195ZM51.0966 21.3853C51.2378 21.626 51.308 21.9102 51.308 22.237C51.308 22.5639 51.237 22.8481 51.0966 23.0888C50.9553 23.3296 50.7589 23.5168 50.5064 23.6497C50.254 23.7826 49.9798 23.8813 49.6839 23.9448C49.388 24.0083 49.0645 24.0401 48.7159 24.0401C48.3665 24.0401 48.0438 24.01 47.7479 23.949C47.452 23.888 47.1787 23.7902 46.9296 23.6539C46.6805 23.5185 46.4841 23.3296 46.3394 23.0888C46.1957 22.8481 46.1238 22.5639 46.1238 22.237C46.1238 21.9044 46.1948 21.6176 46.3361 21.3769C46.4774 21.1362 46.6738 20.9489 46.9262 20.816C47.1787 20.6831 47.4529 20.5861 47.7488 20.5251C48.0455 20.4641 48.3682 20.434 48.7167 20.434C49.0653 20.434 49.3888 20.4658 49.6847 20.5293C49.9815 20.5928 50.2556 20.6915 50.5073 20.8244C50.7589 20.9573 50.9553 21.1445 51.0966 21.3853Z" fill="url(#paint9_linear_18206_1742)"/>
<path d="M46.1484 18.5551H46.207C46.207 18.2174 46.2579 18.0009 46.3608 17.9073C46.4636 17.8128 46.6617 17.766 46.9551 17.766H50.4784C50.7718 17.766 50.9699 17.8128 51.0727 17.9073C51.1755 18.0017 51.2265 18.2174 51.2265 18.5551H51.2851V16.1034H51.2265C51.2265 16.447 51.1739 16.671 51.0686 16.7763C50.9632 16.8816 50.7609 16.9343 50.4617 16.9343H48.8166V16.7847C48.8166 16.2422 48.9011 15.8543 49.0699 15.6211C49.2388 15.3887 49.5363 15.2357 49.9635 15.1638V15.1137H47.6037V15.1638C48.025 15.2357 48.3209 15.3879 48.4931 15.6211C48.6653 15.8535 48.7506 16.2413 48.7506 16.7847V16.9343H46.2161V16.3441C46.2161 15.652 46.3424 15.1572 46.594 14.8604C46.8464 14.5637 47.241 14.358 47.7784 14.241L47.7701 14.1992L46.1493 14.307V18.5551H46.1484Z" fill="url(#paint10_linear_18206_1742)"/>
<path d="M76.2218 23.4456C75.8632 23.0276 75.508 22.5194 75.1552 21.9225C74.8025 21.3249 74.453 20.6378 74.107 19.8612L72.0298 15.1133C70.8704 15.6717 69.8196 16.2292 68.8692 16.7776L68.9461 16.9581L69.125 17.3167L70.3797 20.2558C70.6907 21.0323 70.8712 21.7035 70.9214 22.2678C70.9724 22.832 70.8929 23.2909 70.684 23.6428C70.475 23.9956 70.1565 24.2597 69.7294 24.4361C69.3022 24.6125 68.7664 24.7002 68.1211 24.7002V24.951H79.0538V24.7002C78.4687 24.7002 77.9396 24.5958 77.4673 24.3868C76.9959 24.1778 76.5804 23.8635 76.2218 23.4456Z" fill="url(#paint11_linear_18206_1742)"/>
<path d="M60.6271 17.3171L60.77 16.9585L64.8208 7.24452L67.2741 13.0265C68.3015 12.4614 69.348 11.9364 70.423 11.4474L66.577 2.65625H66.3262L60.0536 17.639C60.021 17.715 59.9659 17.8488 59.8906 18.0352C60.1088 17.858 60.327 17.6833 60.546 17.5111L60.6271 17.3171Z" fill="url(#paint12_linear_18206_1742)"/>
<path d="M62.6576 20.2002C64.0059 18.9748 65.9076 17.5229 68.5432 16.0116C69.4961 15.4649 70.5452 14.9107 71.6979 14.3565C78.5456 11.0664 89.0713 7.78293 105.052 6.16797C89.0546 6.52908 78.6794 8.59376 70.755 12.2023C69.6591 12.7014 68.6101 13.2305 67.5995 13.788C64.8101 15.3269 62.3141 17.0882 59.9351 19.0626C59.7052 19.2532 59.4762 19.4454 59.248 19.6402C59.248 19.641 59.248 19.641 59.2471 19.6419C59.2079 19.7296 59.1694 19.8141 59.1318 19.896C58.6286 20.996 58.2842 21.6221 57.7893 22.4706C57.669 22.6419 57.5519 22.7832 57.4383 22.8919C57.307 23.0172 57.1591 23.1552 56.9944 23.304C56.8297 23.4527 56.6492 23.6149 56.4527 23.7879C56.2555 23.961 56.0465 24.1081 55.825 24.2276C55.6043 24.3472 55.3711 24.4399 55.1262 24.5051C54.8812 24.5712 54.6263 24.6205 54.3605 24.6531C54.0946 24.6857 53.818 24.7024 53.5312 24.7024V24.9532H62.5281V24.7024C62.0976 24.7024 61.7122 24.6681 61.372 24.5996C61.0318 24.5311 60.7359 24.4282 60.4851 24.2903C60.2343 24.1532 60.0237 24.0011 59.8532 23.8331C59.7963 23.7771 59.7453 23.7186 59.6969 23.6584C59.7161 23.6233 60.435 22.2206 62.6576 20.2002Z" fill="url(#paint13_linear_18206_1742)"/>
<path d="M144.864 9.16335C144.816 9.12992 144.699 9.0505 144.515 8.92512C144.391 8.84153 144.269 8.77215 144.149 8.71865C144 8.65094 143.828 8.5615 143.635 8.45033C143.625 8.44531 143.615 8.44197 143.604 8.4428C143.595 8.44364 143.588 8.4428 143.582 8.44113C143.57 8.43863 143.57 8.43611 143.581 8.43277C143.583 8.43193 143.585 8.4311 143.586 8.42943C143.588 8.42692 143.588 8.42441 143.583 8.42274L143.288 8.30321L142.732 8.08002L141.32 7.63198C140.742 7.44139 140.374 7.33858 140.216 7.3227C140.08 7.30849 139.995 7.28425 139.959 7.25081C139.703 7.01341 139.459 6.79357 139.228 6.59295L138.663 6.08138C138.22 5.82392 137.743 5.64587 137.231 5.54891L136.355 5.45612C135.799 5.50461 135.177 5.50043 134.689 5.5556C134.18 5.61244 133.675 5.69603 133.173 5.80637L132.517 5.9259C132.291 5.97856 132.124 6.00531 132.017 6.00531C131.048 6.00698 130.08 6.00782 129.113 6.00699H127.089C126.47 6.00531 125.842 6.00448 125.206 6.00531C125.109 6.00615 124.6 6.00865 124.569 6.00865L123.029 6.00782L120.989 6.00615L118.962 6.00364C118.154 6.00698 117.641 6.00531 117.423 5.99946C117.303 5.99612 117.135 5.97773 116.919 5.94596L116.163 5.87324C116.131 5.8699 116.131 5.86488 116.163 5.85903C116.171 5.85736 116.179 5.85903 116.188 5.85819L114.905 5.8164L112.772 5.8072L111.777 5.79717C111.754 5.79717 111.736 5.78965 111.72 5.77377C111.619 5.67597 111.537 5.56646 111.475 5.44693C111.292 5.09502 111.002 4.78155 110.75 4.47728L110.427 4.08608C109.213 2.62994 108.277 1.49646 107.292 0.471641C107.121 0.29443 106.967 0.177406 106.827 0.119729C106.639 0.0428262 106.443 0.00437353 106.239 0.00353763C105.751 0.00186582 105.255 0.00269826 104.751 0.00520596L102.717 0.00437435C102.657 -0.00314877 102.603 -0.000641271 102.557 0.00938955C102.549 0.0344666 102.549 0.0536883 102.556 0.0678986C102.562 0.0804371 102.577 0.0871278 102.6 0.0871278C103.661 0.0879637 104.722 0.0862895 105.781 0.0846177C106.203 0.0837818 106.56 0.131431 106.851 0.228395C106.988 0.321181 107.135 0.454925 107.294 0.630464C107.662 1.04089 107.91 1.31841 108.033 1.46469C109.137 2.76201 110.238 4.0585 111.339 5.35331C111.347 5.36251 111.341 5.37672 111.329 5.37922L111.291 5.38591C111.272 5.38842 111.253 5.38173 111.241 5.36752C110.345 4.32682 109.455 3.28111 108.571 2.23038C108.164 1.74639 107.763 1.27912 107.367 0.828573C107.19 0.626284 106.988 0.453253 106.763 0.311986C106.546 0.247621 106.338 0.215017 106.138 0.214181C104.974 0.211674 103.81 0.210002 102.648 0.209166C102.618 0.209166 102.601 0.21502 102.595 0.227559C102.591 0.235918 102.588 0.244277 102.587 0.254308C102.585 0.276878 102.592 0.292757 102.613 0.303624C102.66 0.329537 102.695 0.340404 102.718 0.335388L103.128 0.410622C103.155 0.415637 103.179 0.433191 103.191 0.457432L103.987 2.02141L104.839 3.70073L104.94 3.89633C105.097 4.25326 105.332 4.63444 105.475 4.92115C105.567 5.10756 105.697 5.37253 105.866 5.71609C105.891 5.76708 105.88 5.82476 105.909 5.86488C106.037 6.04293 106.155 6.24856 106.262 6.48178C106.285 6.5311 106.26 6.58877 106.21 6.608L105.491 6.87548C105.328 7.18895 105.407 7.41297 105.727 7.54755C105.892 7.61693 106.054 7.67628 106.215 7.72727C106.247 7.7373 106.256 7.7791 106.231 7.80083L105.928 8.06916L104.63 9.21267C104.423 9.36898 104.386 9.43418 104.518 9.40744C105.173 9.43001 105.814 9.42666 106.442 9.39824C106.5 9.39573 106.563 9.38654 106.628 9.37149C106.7 9.35477 106.762 9.34223 106.813 9.33388L108.813 8.22798C108.933 8.1469 109.028 8.11262 109.099 8.12432C109.692 8.22379 110.274 8.33247 110.847 8.45116L112.87 8.86911C113.163 8.93849 113.463 9.00453 113.768 9.06806C114.123 9.14162 114.42 9.211 114.662 9.27369C115.17 9.4066 115.679 9.54536 116.188 9.69164L116.901 9.88975L117.291 9.99926L118.954 10.403L121.245 10.8744C121.3 10.8903 121.358 10.8987 121.417 10.9004C121.422 10.9012 121.422 10.902 121.418 10.9029C121.413 10.9045 121.408 10.9079 121.401 10.9112C121.399 10.9129 121.399 10.9137 121.402 10.9146L121.629 10.9597L122.53 11.0801L121.58 12.0639L119.579 14.361H122.745L133.092 10.0787L133.182 10.0578L135.218 10.0711L137.211 10.0645L139.262 10.0486C139.56 9.99675 139.875 9.99675 140.206 10.0486L141.314 10.0569C141.365 10.0444 141.411 10.0302 141.452 10.0135C141.503 9.9934 141.548 9.9817 141.588 9.97919C142.16 9.93907 142.749 9.8747 143.357 9.78693C143.766 9.70501 144.196 9.6231 144.649 9.54118C144.758 9.52195 144.843 9.44756 144.904 9.31967C144.933 9.25447 144.92 9.20348 144.864 9.16335ZM124.329 7.77325C124.329 7.81671 124.293 7.85265 124.249 7.85265L123.893 7.85182C123.849 7.85182 123.814 7.81588 123.814 7.77157L123.815 7.36114C123.815 7.31768 123.851 7.28174 123.895 7.28174L124.252 7.28257C124.296 7.28257 124.331 7.31851 124.331 7.36282L124.329 7.77325ZM125.469 7.77241C125.469 7.81839 125.431 7.856 125.385 7.85516L125.057 7.85182C125.011 7.85182 124.974 7.81337 124.975 7.7674L124.979 7.36031C124.98 7.31434 125.017 7.27672 125.063 7.27755L125.391 7.2809C125.438 7.2809 125.474 7.31935 125.474 7.36533L125.469 7.77241ZM126.696 7.856L126.366 7.85684C126.316 7.85684 126.276 7.81671 126.275 7.76656L126.274 7.367C126.274 7.31684 126.315 7.27672 126.365 7.27589L126.693 7.27505C126.743 7.27505 126.783 7.31517 126.784 7.36533L126.785 7.76489C126.787 7.81504 126.746 7.856 126.696 7.856ZM138.591 6.40989C138.698 6.36893 138.792 6.38565 138.875 6.45921C139.06 6.62472 139.247 6.77351 139.411 6.94236C139.45 6.98332 139.442 7.0109 139.387 7.02595L139.215 7.07443C139.133 7.09784 139.063 7.07861 139.005 7.01592L138.561 6.53444C138.51 6.4776 138.52 6.43664 138.591 6.40989ZM137.351 6.40906H138.032C138.051 6.40906 138.07 6.41658 138.084 6.43079L138.655 7.00171C138.701 7.04768 138.667 7.12626 138.603 7.12626H137.545C137.514 7.12626 137.486 7.10703 137.476 7.07694L137.282 6.50602C137.266 6.45837 137.301 6.40906 137.351 6.40906ZM135.508 6.41072C135.81 6.40571 136.299 6.40404 136.973 6.40738C137.027 6.40822 137.063 6.4358 137.079 6.49181C137.139 6.69577 137.209 6.85292 137.202 7.041C137.2 7.09533 137.155 7.13796 137.101 7.13796H135.43C135.37 7.13796 135.317 7.09784 135.3 7.04016C135.244 6.8479 135.214 6.41657 135.508 6.41072ZM128.12 7.77241C128.12 7.81839 128.082 7.85516 128.037 7.85516L127.697 7.85182C127.651 7.85099 127.614 7.81421 127.614 7.76823L127.618 7.36365C127.618 7.31768 127.656 7.2809 127.701 7.2809L128.041 7.28424C128.087 7.28508 128.123 7.32186 128.123 7.36783L128.12 7.77241ZM129.437 7.77993C129.437 7.82173 129.402 7.85516 129.361 7.85516L129.008 7.85182C128.966 7.85099 128.933 7.81755 128.933 7.77575L128.936 7.35613C128.936 7.31433 128.971 7.2809 129.012 7.2809L129.366 7.28424C129.407 7.28508 129.441 7.31852 129.441 7.36031L129.437 7.77993ZM130.801 7.7674C130.8 7.81755 130.758 7.85851 130.708 7.85767L130.347 7.85349C130.296 7.85266 130.257 7.8117 130.257 7.76071L130.262 7.36114C130.263 7.31099 130.304 7.27003 130.354 7.27087L130.716 7.27505C130.767 7.27588 130.806 7.31684 130.806 7.36783L130.801 7.7674ZM132.111 7.85684L131.752 7.85767C131.705 7.85767 131.668 7.82006 131.668 7.77325L131.667 7.36198C131.667 7.31517 131.704 7.27755 131.751 7.27755L132.11 7.27672C132.157 7.27672 132.194 7.31433 132.194 7.36114L132.195 7.77241C132.196 7.81839 132.157 7.85684 132.111 7.85684Z" fill="url(#paint14_linear_18206_1742)"/>
<path d="M116.244 5.85915C116.244 5.85831 116.244 5.85831 116.244 5.85748C116.245 5.8558 116.244 5.85496 116.243 5.8558C116.241 5.8558 116.24 5.8558 116.239 5.85664C116.239 5.85664 116.238 5.85664 116.237 5.85664C116.22 5.85496 116.204 5.85747 116.188 5.85915L116.244 5.86083C116.244 5.86083 116.245 5.85999 116.244 5.85915Z" fill="url(#paint15_linear_18206_1742)"/>
<defs>
<linearGradient id="paint0_linear_18206_1742" x1="6.28854" y1="19.1197" x2="104.632" y2="84.2095" gradientUnits="userSpaceOnUse">
<stop offset="0.2832" stop-color="#EDC526"/>
<stop offset="0.4297" stop-color="#E3DB68"/>
<stop offset="0.5856" stop-color="#EDC526"/>
</linearGradient>
<linearGradient id="paint1_linear_18206_1742" x1="11.7446" y1="10.8743" x2="110.088" y2="75.9641" gradientUnits="userSpaceOnUse">
<stop offset="0.2832" stop-color="#EDC526"/>
<stop offset="0.4297" stop-color="#E3DB68"/>
<stop offset="0.5856" stop-color="#EDC526"/>
</linearGradient>
<linearGradient id="paint2_linear_18206_1742" x1="18.3746" y1="0.852656" x2="116.718" y2="65.9425" gradientUnits="userSpaceOnUse">
<stop offset="0.2832" stop-color="#EDC526"/>
<stop offset="0.4297" stop-color="#E3DB68"/>
<stop offset="0.5856" stop-color="#EDC526"/>
</linearGradient>
<linearGradient id="paint3_linear_18206_1742" x1="30.5315" y1="-17.5119" x2="128.875" y2="47.5779" gradientUnits="userSpaceOnUse">
<stop offset="0.2832" stop-color="#EDC526"/>
<stop offset="0.4297" stop-color="#E3DB68"/>
<stop offset="0.5856" stop-color="#EDC526"/>
</linearGradient>
<linearGradient id="paint4_linear_18206_1742" x1="35.5512" y1="-25.0955" x2="133.895" y2="39.9944" gradientUnits="userSpaceOnUse">
<stop offset="0.2832" stop-color="#EDC526"/>
<stop offset="0.4297" stop-color="#E3DB68"/>
<stop offset="0.5856" stop-color="#EDC526"/>
</linearGradient>
<linearGradient id="paint5_linear_18206_1742" x1="38.5265" y1="-29.5924" x2="136.87" y2="35.4975" gradientUnits="userSpaceOnUse">
<stop offset="0.2832" stop-color="#EDC526"/>
<stop offset="0.4297" stop-color="#E3DB68"/>
<stop offset="0.5856" stop-color="#EDC526"/>
</linearGradient>
<linearGradient id="paint6_linear_18206_1742" x1="40.7865" y1="-33.0005" x2="139.13" y2="32.0893" gradientUnits="userSpaceOnUse">
<stop offset="0.2832" stop-color="#EDC526"/>
<stop offset="0.4297" stop-color="#E3DB68"/>
<stop offset="0.5856" stop-color="#EDC526"/>
</linearGradient>
<linearGradient id="paint7_linear_18206_1742" x1="43.6892" y1="-37.3835" x2="142.033" y2="27.7064" gradientUnits="userSpaceOnUse">
<stop offset="0.2832" stop-color="#EDC526"/>
<stop offset="0.4297" stop-color="#E3DB68"/>
<stop offset="0.5856" stop-color="#EDC526"/>
</linearGradient>
<linearGradient id="paint8_linear_18206_1742" x1="46.6779" y1="-41.9074" x2="145.021" y2="23.1824" gradientUnits="userSpaceOnUse">
<stop offset="0.2832" stop-color="#EDC526"/>
<stop offset="0.4297" stop-color="#E3DB68"/>
<stop offset="0.5856" stop-color="#EDC526"/>
</linearGradient>
<linearGradient id="paint9_linear_18206_1742" x1="17.7764" y1="1.75971" x2="116.12" y2="66.8496" gradientUnits="userSpaceOnUse">
<stop offset="0.2832" stop-color="#EDC526"/>
<stop offset="0.4297" stop-color="#E3DB68"/>
<stop offset="0.5856" stop-color="#EDC526"/>
</linearGradient>
<linearGradient id="paint10_linear_18206_1742" x1="20.0618" y1="-1.69241" x2="118.405" y2="63.3974" gradientUnits="userSpaceOnUse">
<stop offset="0.2832" stop-color="#EDC526"/>
<stop offset="0.4297" stop-color="#E3DB68"/>
<stop offset="0.5856" stop-color="#EDC526"/>
</linearGradient>
<linearGradient id="paint11_linear_18206_1742" x1="25.298" y1="-9.60467" x2="123.642" y2="55.4851" gradientUnits="userSpaceOnUse">
<stop offset="0.2832" stop-color="#EDC526"/>
<stop offset="0.4297" stop-color="#E3DB68"/>
<stop offset="0.5856" stop-color="#EDC526"/>
</linearGradient>
<linearGradient id="paint12_linear_18206_1742" x1="27.6703" y1="-13.1918" x2="126.014" y2="51.8981" gradientUnits="userSpaceOnUse">
<stop offset="0.2832" stop-color="#EDC526"/>
<stop offset="0.4297" stop-color="#E3DB68"/>
<stop offset="0.5856" stop-color="#EDC526"/>
</linearGradient>
<linearGradient id="paint13_linear_18206_1742" x1="30.1645" y1="-16.9561" x2="128.508" y2="48.1337" gradientUnits="userSpaceOnUse">
<stop offset="0.2832" stop-color="#EDC526"/>
<stop offset="0.4297" stop-color="#E3DB68"/>
<stop offset="0.5856" stop-color="#EDC526"/>
</linearGradient>
<linearGradient id="paint14_linear_18206_1742" x1="46.874" y1="-42.2" x2="145.218" y2="22.8898" gradientUnits="userSpaceOnUse">
<stop offset="0.2832" stop-color="#EDC526"/>
<stop offset="0.4297" stop-color="#E3DB68"/>
<stop offset="0.5856" stop-color="#EDC526"/>
</linearGradient>
<linearGradient id="paint15_linear_18206_1742" x1="45.6858" y1="-40.8248" x2="144.302" y2="24.4446" gradientUnits="userSpaceOnUse">
<stop offset="0.2832" stop-color="#EDC526"/>
<stop offset="0.4297" stop-color="#E3DB68"/>
<stop offset="0.5856" stop-color="#EDC526"/>
</linearGradient>
</defs>
</svg>
