<svg width="16" height="16" viewBox="0 0 16 16" fill="none" xmlns="http://www.w3.org/2000/svg">
<g clip-path="url(#clip0_18225_14940)">
<path d="M6.83594 13.9883C6.95285 14.1908 7.12101 14.3589 7.3235 14.4758C7.52599 14.5927 7.75569 14.6543 7.9895 14.6543C8.22331 14.6543 8.45301 14.5927 8.6555 14.4758C8.85799 14.3589 9.02615 14.1908 9.14306 13.9883" stroke="white" stroke-width="1.33206" stroke-linecap="round" stroke-linejoin="round"/>
<path d="M2.17401 10.2075C2.08701 10.3029 2.02959 10.4215 2.00874 10.5489C1.9879 10.6763 2.00452 10.807 2.0566 10.9251C2.10867 11.0432 2.19395 11.1437 2.30206 11.2142C2.41017 11.2848 2.53645 11.3224 2.66554 11.3225H13.322C13.4511 11.3225 13.5774 11.2851 13.6856 11.2146C13.7938 11.1442 13.8791 11.0439 13.9314 10.9259C13.9836 10.8078 14.0004 10.6771 13.9797 10.5497C13.959 10.4223 13.9017 10.3037 13.8149 10.2082C12.9291 9.29508 11.99 8.32468 11.99 5.32821C11.99 4.26836 11.5689 3.25191 10.8195 2.50248C10.0701 1.75306 9.05363 1.33203 7.99378 1.33203C6.93393 1.33203 5.91748 1.75306 5.16806 2.50248C4.41863 3.25191 3.9976 4.26836 3.9976 5.32821C3.9976 8.32468 3.05783 9.29508 2.17401 10.2075Z" stroke="white" stroke-width="1.33206" stroke-linecap="round" stroke-linejoin="round"/>
</g>
<defs>
<clipPath id="clip0_18225_14940">
<rect width="15.9847" height="15.9847" fill="white"/>
</clipPath>
</defs>
</svg>
