<svg width="20" height="20" viewBox="0 0 20 20" fill="none" xmlns="http://www.w3.org/2000/svg">
<path d="M10.4935 2.1563C10.1811 1.84372 9.7572 1.66806 9.31521 1.66797H3.33854C2.89651 1.66797 2.47259 1.84356 2.16003 2.15612C1.84747 2.46868 1.67188 2.89261 1.67188 3.33464V9.3113C1.67197 9.75329 1.84763 10.1771 2.16021 10.4896L9.41354 17.743C9.7923 18.1193 10.3046 18.3306 10.8385 18.3306C11.3725 18.3306 11.8848 18.1193 12.2635 17.743L17.7469 12.2596C18.1232 11.8809 18.3345 11.3686 18.3345 10.8346C18.3345 10.3007 18.1232 9.7884 17.7469 9.40963L10.4935 2.1563Z" stroke="#CBD5E1" stroke-width="1.66667" stroke-linecap="round" stroke-linejoin="round"/>
<path d="M6.2526 6.66536C6.48272 6.66536 6.66927 6.47882 6.66927 6.2487C6.66927 6.01858 6.48272 5.83203 6.2526 5.83203C6.02249 5.83203 5.83594 6.01858 5.83594 6.2487C5.83594 6.47882 6.02249 6.66536 6.2526 6.66536Z" fill="#CBD5E1" stroke="#CBD5E1" stroke-width="1.66667" stroke-linecap="round" stroke-linejoin="round"/>
</svg>
