<svg width="16" height="16" viewBox="0 0 16 16" fill="none" xmlns="http://www.w3.org/2000/svg">
<path d="M6.66406 7.33203V11.332" stroke="#FB2C36" stroke-width="1.33206" stroke-linecap="round" stroke-linejoin="round"/>
<path d="M9.33594 7.33203V11.332" stroke="#FB2C36" stroke-width="1.33206" stroke-linecap="round" stroke-linejoin="round"/>
<path d="M12.6693 4V13.3333C12.6693 13.687 12.5288 14.0261 12.2787 14.2761C12.0287 14.5262 11.6896 14.6667 11.3359 14.6667H4.66927C4.31565 14.6667 3.97651 14.5262 3.72646 14.2761C3.47641 14.0261 3.33594 13.687 3.33594 13.3333V4" stroke="#FB2C36" stroke-width="1.33206" stroke-linecap="round" stroke-linejoin="round"/>
<path d="M2 4H14" stroke="#FB2C36" stroke-width="1.33206" stroke-linecap="round" stroke-linejoin="round"/>
<path d="M5.33594 3.9987V2.66536C5.33594 2.31174 5.47641 1.9726 5.72646 1.72256C5.97651 1.47251 6.31565 1.33203 6.66927 1.33203H9.33594C9.68956 1.33203 10.0287 1.47251 10.2787 1.72256C10.5288 1.9726 10.6693 2.31174 10.6693 2.66536V3.9987" stroke="#FB2C36" stroke-width="1.33206" stroke-linecap="round" stroke-linejoin="round"/>
</svg>
