<svg width="20" height="20" viewBox="0 0 20 20" fill="none" xmlns="http://www.w3.org/2000/svg">
<g clip-path="url(#clip0_18706_2422)">
<path d="M7.82733 16.6981L11.3109 11.2551H15.121C16.7539 11.2551 18.1146 10.4386 18.3868 9.62215C18.1146 8.8057 16.7539 7.98924 15.121 7.98924H11.3109L7.82733 2.54622C7.60961 2.21964 7.28302 2.11078 6.95644 2.21964L6.521 2.3285C6.13999 2.49179 5.92227 2.81837 5.9767 3.19939L6.95644 7.98924L4.23493 8.53355L2.60203 6.90064H1.51342L2.05772 9.62215L1.51342 12.3437H2.60203L4.23493 10.7108L6.95644 11.2551L5.9767 16.0449C5.92227 16.4259 6.13999 16.7525 6.521 16.9158L6.90201 17.0791C7.28302 17.1335 7.6096 17.0247 7.82733 16.6981Z" stroke="#CBD5E1" stroke-width="1.25" stroke-linecap="round" stroke-linejoin="round"/>
</g>
<defs>
<clipPath id="clip0_18706_2422">
<rect width="20" height="20" fill="white"/>
</clipPath>
</defs>
</svg>
