<svg width="16" height="16" viewBox="0 0 16 16" fill="none" xmlns="http://www.w3.org/2000/svg">
<g clip-path="url(#clip0_18225_15006)">
<path d="M13.3205 8.65865C13.3205 11.9888 10.9894 13.6539 8.21875 14.6196C8.07366 14.6688 7.91606 14.6664 7.77251 14.613C4.99517 13.6539 2.66406 11.9888 2.66406 8.65865V3.99645C2.66406 3.81981 2.73423 3.6504 2.85914 3.52549C2.98404 3.40059 3.15345 3.33042 3.33009 3.33042C4.66215 3.33042 6.32722 2.53118 7.48612 1.51882C7.62722 1.39827 7.80671 1.33203 7.9923 1.33203C8.17788 1.33203 8.35738 1.39827 8.49848 1.51882C9.66403 2.53784 11.3224 3.33042 12.6545 3.33042C12.8311 3.33042 13.0006 3.40059 13.1255 3.52549C13.2504 3.6504 13.3205 3.81981 13.3205 3.99645V8.65865Z" stroke="white" stroke-width="1.33206" stroke-linecap="round" stroke-linejoin="round"/>
</g>
<defs>
<clipPath id="clip0_18225_15006">
<rect width="15.9847" height="15.9847" fill="white"/>
</clipPath>
</defs>
</svg>
