<svg width="16" height="16" viewBox="0 0 16 16" fill="none" xmlns="http://www.w3.org/2000/svg">
<g clip-path="url(#clip0_18225_15023)">
<path d="M7.99623 14.6526C11.6746 14.6526 14.6565 11.6707 14.6565 7.99233C14.6565 4.31395 11.6746 1.33203 7.99623 1.33203C4.31785 1.33203 1.33594 4.31395 1.33594 7.99233C1.33594 11.6707 4.31785 14.6526 7.99623 14.6526Z" stroke="white" stroke-width="1.33206" stroke-linecap="round" stroke-linejoin="round"/>
<path d="M6.05469 5.9952C6.21127 5.55007 6.52034 5.17472 6.92716 4.93563C7.33397 4.69654 7.81227 4.60915 8.27735 4.68892C8.74242 4.76869 9.16426 5.01049 9.46814 5.37148C9.77202 5.73247 9.93834 6.18936 9.93764 6.66123C9.93764 7.99328 7.93955 8.65931 7.93955 8.65931" stroke="white" stroke-width="1.33206" stroke-linecap="round" stroke-linejoin="round"/>
<path d="M7.99219 11.3242H7.99885" stroke="white" stroke-width="1.33206" stroke-linecap="round" stroke-linejoin="round"/>
</g>
<defs>
<clipPath id="clip0_18225_15023">
<rect width="15.9847" height="15.9847" fill="white"/>
</clipPath>
</defs>
</svg>
