<svg width="22" height="18" viewBox="0 0 22 18" fill="none" xmlns="http://www.w3.org/2000/svg">
<path d="M4.56148 15.7402L3.94218 15.9376L4.40819 17.3995L5.13413 16.0477L4.56148 15.7402ZM0.648438 3.46484L1.14287 3.0429C0.941981 2.8075 0.602986 2.74637 0.332528 2.89678C0.0620694 3.04718 -0.0648479 3.36741 0.0291415 3.66226L0.648438 3.46484ZM6.30061 10.088L5.80618 10.51L6.44549 11.2591L6.88296 10.3768L6.30061 10.088ZM10.576 1.46484L11.1583 1.17611L10.576 0.00153744L9.99362 1.17611L10.576 1.46484ZM14.8513 10.088L14.269 10.3768L14.7021 11.2503L15.3418 10.5145L14.8513 10.088ZM20.6484 3.42137L21.2669 3.62145C21.3619 3.32759 21.2371 3.0074 20.9682 2.85546C20.6993 2.70352 20.3606 2.76178 20.1579 2.99485L20.6484 3.42137ZM16.6629 15.7402L16.0816 16.0309L16.7922 17.4522L17.2814 15.9403L16.6629 15.7402ZM14.7064 11.8272L15.2878 11.5365L14.8317 10.6242L14.1974 11.4229L14.7064 11.8272ZM10.7934 16.7547L10.2952 17.1723L10.807 17.7828L11.3024 17.1589L10.7934 16.7547ZM6.66293 11.8272L7.16107 11.4096L6.54444 10.674L6.09028 11.5196L6.66293 11.8272ZM4.56148 15.7402L5.18078 15.5428L1.26773 3.26743L0.648438 3.46484L0.0291415 3.66226L3.94218 15.9376L4.56148 15.7402ZM0.648438 3.46484L0.154005 3.88679L5.80618 10.51L6.30061 10.088L6.79504 9.66609L1.14287 3.0429L0.648438 3.46484ZM6.30061 10.088L6.88296 10.3768L11.1583 1.75357L10.576 1.46484L9.99362 1.17611L5.71826 9.7993L6.30061 10.088ZM10.576 1.46484L9.99362 1.75357L14.269 10.3768L14.8513 10.088L15.4337 9.7993L11.1583 1.17611L10.576 1.46484ZM14.8513 10.088L15.3418 10.5145L21.1389 3.84788L20.6484 3.42137L20.1579 2.99485L14.3608 9.66152L14.8513 10.088ZM20.6484 3.42137L20.03 3.22128L16.0445 15.5401L16.6629 15.7402L17.2814 15.9403L21.2669 3.62145L20.6484 3.42137ZM16.6629 15.7402L17.2443 15.4495L15.2878 11.5365L14.7064 11.8272L14.125 12.1179L16.0816 16.0309L16.6629 15.7402ZM14.7064 11.8272L14.1974 11.4229L10.2843 16.3505L10.7934 16.7547L11.3024 17.1589L15.2154 12.2314L14.7064 11.8272ZM10.7934 16.7547L11.2915 16.3371L7.16107 11.4096L6.66293 11.8272L6.16479 12.2447L10.2952 17.1723L10.7934 16.7547ZM6.66293 11.8272L6.09028 11.5196L3.98883 15.4327L4.56148 15.7402L5.13413 16.0477L7.23558 12.1347L6.66293 11.8272Z" fill="white"/>
</svg>
