<svg width="24" height="24" viewBox="0 0 24 24" fill="none" xmlns="http://www.w3.org/2000/svg">
<path d="M11.0078 2.81215C11.0507 2.58285 11.1723 2.37575 11.3518 2.22671C11.5312 2.07768 11.7572 1.99609 11.9904 1.99609C12.2237 1.99609 12.4496 2.07768 12.6291 2.22671C12.8085 2.37575 12.9302 2.58285 12.973 2.81215L14.0236 8.36783C14.0982 8.76282 14.2901 9.12614 14.5744 9.41037C14.8586 9.69461 15.2219 9.88656 15.6169 9.96117L21.1726 11.0117C21.4019 11.0546 21.609 11.1762 21.758 11.3557C21.9071 11.5351 21.9886 11.7611 21.9886 11.9943C21.9886 12.2276 21.9071 12.4535 21.758 12.633C21.609 12.8124 21.4019 12.9341 21.1726 12.9769L15.6169 14.0275C15.2219 14.1021 14.8586 14.294 14.5744 14.5783C14.2901 14.8625 14.0982 15.2258 14.0236 15.6208L12.973 21.1765C12.9302 21.4058 12.8085 21.6129 12.6291 21.7619C12.4496 21.911 12.2237 21.9926 11.9904 21.9926C11.7572 21.9926 11.5312 21.911 11.3518 21.7619C11.1723 21.6129 11.0507 21.4058 11.0078 21.1765L9.95726 15.6208C9.88265 15.2258 9.6907 14.8625 9.40646 14.5783C9.12223 14.294 8.75891 14.1021 8.36393 14.0275L2.80824 12.9769C2.57894 12.9341 2.37184 12.8124 2.2228 12.633C2.07377 12.4535 1.99219 12.2276 1.99219 11.9943C1.99219 11.7611 2.07377 11.5351 2.2228 11.3557C2.37184 11.1762 2.57894 11.0546 2.80824 11.0117L8.36393 9.96117C8.75891 9.88656 9.12223 9.69461 9.40646 9.41037C9.6907 9.12614 9.88265 8.76282 9.95726 8.36783L11.0078 2.81215Z" stroke="white" stroke-width="1.99917" stroke-linecap="round" stroke-linejoin="round"/>
<path d="M19.9922 2V5.99833" stroke="white" stroke-width="1.99917" stroke-linecap="round" stroke-linejoin="round"/>
<path d="M21.9905 4H17.9922" stroke="white" stroke-width="1.99917" stroke-linecap="round" stroke-linejoin="round"/>
<path d="M3.99917 21.9905C5.10328 21.9905 5.99833 21.0955 5.99833 19.9914C5.99833 18.8872 5.10328 17.9922 3.99917 17.9922C2.89506 17.9922 2 18.8872 2 19.9914C2 21.0955 2.89506 21.9905 3.99917 21.9905Z" stroke="white" stroke-width="1.99917" stroke-linecap="round" stroke-linejoin="round"/>
</svg>
