<svg width="12" height="12" viewBox="0 0 12 12" fill="none" xmlns="http://www.w3.org/2000/svg">
<path d="M10.4886 6.23769C10.4417 7.10529 10.1446 7.94075 9.63307 8.64309C9.12154 9.34542 8.41753 9.88455 7.60614 10.1953C6.79475 10.5061 5.91072 10.5751 5.06091 10.3942C4.21109 10.2132 3.43188 9.79002 2.81747 9.17567C2.20306 8.56133 1.77975 7.78216 1.59871 6.93237C1.41768 6.08257 1.48666 5.19853 1.79734 4.38711C2.10801 3.57568 2.64706 2.87162 3.34934 2.36002C4.05162 1.84842 4.88705 1.5512 5.75464 1.50427C5.95703 1.49328 6.06297 1.73414 5.95553 1.90555C5.59617 2.48051 5.4423 3.1603 5.51902 3.83398C5.59574 4.50765 5.89853 5.13543 6.37796 5.61487C6.8574 6.09431 7.48518 6.3971 8.15886 6.47382C8.83253 6.55054 9.51232 6.39666 10.0873 6.0373C10.2592 5.92986 10.4996 6.0353 10.4886 6.23769Z" stroke="#F8FAFC" stroke-width="0.999456" stroke-linecap="round" stroke-linejoin="round"/>
</svg>
