<svg width="20" height="20" viewBox="0 0 20 20" fill="none" xmlns="http://www.w3.org/2000/svg">
<g clip-path="url(#clip0_18225_16713)">
<path d="M16.0768 14.407L15.0018 13.332V9.16536C15.0018 6.60703 13.6351 4.46536 11.2518 3.8987V3.33203C11.2518 2.64036 10.6934 2.08203 10.0018 2.08203C9.31009 2.08203 8.75175 2.64036 8.75175 3.33203V3.8987C6.36009 4.46536 5.00175 6.5987 5.00175 9.16536V13.332L3.92675 14.407C3.40175 14.932 3.76842 15.832 4.51009 15.832H15.4851C16.2351 15.832 16.6018 14.932 16.0768 14.407ZM13.3351 14.1654H6.66842V9.16536C6.66842 7.0987 7.92675 5.41536 10.0018 5.41536C12.0768 5.41536 13.3351 7.0987 13.3351 9.16536V14.1654ZM10.0018 18.332C10.9184 18.332 11.6684 17.582 11.6684 16.6654H8.33508C8.33508 17.582 9.07675 18.332 10.0018 18.332Z" fill="white"/>
</g>
<defs>
<clipPath id="clip0_18225_16713">
<rect width="20" height="20" fill="white"/>
</clipPath>
</defs>
</svg>
