<svg width="16" height="16" viewBox="0 0 16 16" fill="none" xmlns="http://www.w3.org/2000/svg">
<path d="M10.6693 14V12.6667C10.6693 11.9594 10.3883 11.2811 9.88822 10.781C9.38812 10.281 8.70985 10 8.0026 10H4.0026C3.29536 10 2.61708 10.281 2.11699 10.781C1.61689 11.2811 1.33594 11.9594 1.33594 12.6667V14" stroke="#CBD5E1" stroke-width="1.33333" stroke-linecap="round" stroke-linejoin="round"/>
<path d="M10.6641 2.08594C11.2359 2.23418 11.7423 2.56811 12.1038 3.03531C12.4654 3.50251 12.6615 4.07653 12.6615 4.66727C12.6615 5.25801 12.4654 5.83203 12.1038 6.29923C11.7423 6.76643 11.2359 7.10036 10.6641 7.2486" stroke="#CBD5E1" stroke-width="1.33333" stroke-linecap="round" stroke-linejoin="round"/>
<path d="M14.6719 14.0032V12.6698C14.6714 12.079 14.4748 11.505 14.1128 11.0381C13.7508 10.5711 13.244 10.2376 12.6719 10.0898" stroke="#CBD5E1" stroke-width="1.33333" stroke-linecap="round" stroke-linejoin="round"/>
<path d="M6.0026 7.33724C7.47536 7.33724 8.66927 6.14333 8.66927 4.67057C8.66927 3.19781 7.47536 2.00391 6.0026 2.00391C4.52984 2.00391 3.33594 3.19781 3.33594 4.67057C3.33594 6.14333 4.52984 7.33724 6.0026 7.33724Z" stroke="#CBD5E1" stroke-width="1.33333" stroke-linecap="round" stroke-linejoin="round"/>
</svg>
