<svg width="32" height="32" viewBox="0 0 32 32" fill="none" xmlns="http://www.w3.org/2000/svg">
<path d="M12.8912 5.51617C12.9646 4.74329 13.3236 4.02556 13.898 3.50321C14.4723 2.98086 15.2208 2.69141 15.9972 2.69141C16.7735 2.69141 17.522 2.98086 18.0964 3.50321C18.6707 4.02556 19.0297 4.74329 19.1032 5.51617C19.1473 6.01544 19.3111 6.49673 19.5807 6.91929C19.8502 7.34185 20.2176 7.69325 20.6518 7.94374C21.0859 8.19423 21.574 8.33644 22.0748 8.35833C22.5755 8.38022 23.0742 8.28115 23.5285 8.0695C24.234 7.74921 25.0334 7.70286 25.7712 7.93948C26.5089 8.17611 27.1323 8.67877 27.5199 9.34964C27.9074 10.0205 28.0315 10.8116 27.868 11.5689C27.7045 12.3263 27.265 12.9957 26.6352 13.4468C26.225 13.7346 25.8902 14.117 25.6591 14.5615C25.4279 15.0061 25.3072 15.4998 25.3072 16.0008C25.3072 16.5019 25.4279 16.9956 25.6591 17.4401C25.8902 17.8847 26.225 18.267 26.6352 18.5548C27.265 19.006 27.7045 19.6754 27.868 20.4327C28.0315 21.1901 27.9074 21.9812 27.5199 22.652C27.1323 23.3229 26.5089 23.8256 25.7712 24.0622C25.0334 24.2988 24.234 24.2525 23.5285 23.9322C23.0742 23.7205 22.5755 23.6214 22.0748 23.6433C21.574 23.6652 21.0859 23.8074 20.6518 24.0579C20.2176 24.3084 19.8502 24.6598 19.5807 25.0824C19.3111 25.5049 19.1473 25.9862 19.1032 26.4855C19.0297 27.2584 18.6707 27.9761 18.0964 28.4985C17.522 29.0208 16.7735 29.3103 15.9972 29.3103C15.2208 29.3103 14.4723 29.0208 13.898 28.4985C13.3236 27.9761 12.9646 27.2584 12.8912 26.4855C12.8471 25.9861 12.6833 25.5046 12.4137 25.0819C12.144 24.6592 11.7765 24.3077 11.3421 24.0571C10.9078 23.8066 10.4195 23.6645 9.91861 23.6427C9.41769 23.621 8.9189 23.7202 8.4645 23.9322C7.75902 24.2525 6.9596 24.2988 6.22183 24.0622C5.48407 23.8256 4.86073 23.3229 4.47314 22.652C4.08556 21.9812 3.96145 21.1901 4.12498 20.4327C4.28851 19.6754 4.72797 19.006 5.35783 18.5548C5.76799 18.267 6.10281 17.8847 6.33395 17.4401C6.5651 16.9956 6.68577 16.5019 6.68577 16.0008C6.68577 15.4998 6.5651 15.0061 6.33395 14.5615C6.10281 14.117 5.76799 13.7346 5.35783 13.4468C4.72885 12.9954 4.29017 12.3263 4.12703 11.5695C3.9639 10.8127 4.08798 10.0222 4.47515 9.35179C4.86231 8.68135 5.48492 8.17881 6.22195 7.94182C6.95899 7.70484 7.75781 7.75035 8.46317 8.0695C8.91751 8.28115 9.41616 8.38022 9.9169 8.35833C10.4176 8.33644 10.9057 8.19423 11.3399 7.94374C11.774 7.69325 12.1414 7.34185 12.411 6.91929C12.6806 6.49673 12.8443 6.01544 12.8885 5.51617" stroke="white" stroke-width="2.66576" stroke-linecap="round" stroke-linejoin="round"/>
<path d="M16 20C18.2091 20 20 18.2091 20 16C20 13.7909 18.2091 12 16 12C13.7909 12 12 13.7909 12 16C12 18.2091 13.7909 20 16 20Z" stroke="white" stroke-width="2.66576" stroke-linecap="round" stroke-linejoin="round"/>
</svg>
